<mxfile host="app.diagrams.net" agent="Mozilla/5.0 (X11; Linux x86_64) AppleWebKit/537.36 (KHTML, like Gecko) Chrome/118.0.5615.213 Safari/537.36" version="26.1.2">
  <diagram name="Page-1" id="3AHjamHM2uGK3xO2TBnt">
    <mxGraphModel dx="1951" dy="1247" grid="1" gridSize="10" guides="1" tooltips="1" connect="1" arrows="1" fold="1" page="1" pageScale="1" pageWidth="4681" pageHeight="3300" math="0" shadow="0">
      <root>
        <mxCell id="0" />
        <mxCell id="1" parent="0" />
        <mxCell id="HBNztTJSBU7fsr8p8fqh-55" value="" style="endArrow=classic;html=1;rounded=0;exitX=0.702;exitY=1.067;exitDx=0;exitDy=0;entryX=0.5;entryY=0;entryDx=0;entryDy=0;exitPerimeter=0;" edge="1" parent="1" source="HBNztTJSBU7fsr8p8fqh-48" target="HBNztTJSBU7fsr8p8fqh-23">
          <mxGeometry relative="1" as="geometry">
            <mxPoint x="1830.3" y="527.51" as="sourcePoint" />
            <mxPoint x="1829.9999999999998" y="426.0039999999999" as="targetPoint" />
          </mxGeometry>
        </mxCell>
        <mxCell id="HBNztTJSBU7fsr8p8fqh-56" value="is associated with event" style="edgeLabel;resizable=0;html=1;;align=center;verticalAlign=middle;" connectable="0" vertex="1" parent="HBNztTJSBU7fsr8p8fqh-55">
          <mxGeometry relative="1" as="geometry">
            <mxPoint x="-40" y="-56" as="offset" />
          </mxGeometry>
        </mxCell>
        <mxCell id="KIXE_TsKrN7_V5I0v-MR-3" value="&lt;span style=&quot;color: rgb(32, 32, 32); font-family: Arial, Helvetica, sans-serif; text-align: start; background-color: rgb(255, 255, 255);&quot;&gt;Cervantes&#39; memorial on the printing of El Quijote&lt;/span&gt;" style="swimlane;fontStyle=0;childLayout=stackLayout;horizontal=1;startSize=26;strokeColor=#DAEEF3;strokeWidth=3;fillColor=none;horizontalStack=0;resizeParent=1;resizeParentMax=0;resizeLast=0;collapsible=1;marginBottom=0;whiteSpace=wrap;html=1;" parent="1" vertex="1">
          <mxGeometry x="820" y="755" width="330" height="48" as="geometry" />
        </mxCell>
        <mxCell id="KIXE_TsKrN7_V5I0v-MR-4" value="Record" style="text;strokeColor=#DAEEF3;strokeWidth=3;fillColor=none;align=center;verticalAlign=top;spacingLeft=4;spacingRight=4;overflow=hidden;rotatable=0;points=[[0,0.5],[1,0.5]];portConstraint=eastwest;whiteSpace=wrap;html=1;" parent="KIXE_TsKrN7_V5I0v-MR-3" vertex="1">
          <mxGeometry y="26" width="330" height="22" as="geometry" />
        </mxCell>
        <mxCell id="KIXE_TsKrN7_V5I0v-MR-5" value="" style="endArrow=classic;html=1;rounded=0;exitX=1;exitY=0;exitDx=0;exitDy=0;" parent="1" source="KIXE_TsKrN7_V5I0v-MR-3" target="KIXE_TsKrN7_V5I0v-MR-7" edge="1">
          <mxGeometry relative="1" as="geometry">
            <mxPoint x="980" y="809" as="sourcePoint" />
            <mxPoint x="930" y="900" as="targetPoint" />
          </mxGeometry>
        </mxCell>
        <mxCell id="KIXE_TsKrN7_V5I0v-MR-6" value="has author" style="edgeLabel;resizable=0;html=1;;align=center;verticalAlign=middle;" parent="KIXE_TsKrN7_V5I0v-MR-5" connectable="0" vertex="1">
          <mxGeometry relative="1" as="geometry" />
        </mxCell>
        <mxCell id="KIXE_TsKrN7_V5I0v-MR-7" value="Miguel de Cervantes Saavedra" style="swimlane;fontStyle=0;childLayout=stackLayout;horizontal=1;startSize=26;strokeColor=#E5DFEC;strokeWidth=3;fillColor=none;horizontalStack=0;resizeParent=1;resizeParentMax=0;resizeLast=0;collapsible=1;marginBottom=0;whiteSpace=wrap;html=1;" parent="1" vertex="1">
          <mxGeometry x="1280" y="630" width="210" height="52" as="geometry" />
        </mxCell>
        <mxCell id="KIXE_TsKrN7_V5I0v-MR-8" value="Person" style="text;strokeColor=#E5DFEC;strokeWidth=3;fillColor=none;align=center;verticalAlign=top;spacingLeft=4;spacingRight=4;overflow=hidden;rotatable=0;points=[[0,0.5],[1,0.5]];portConstraint=eastwest;whiteSpace=wrap;html=1;" parent="KIXE_TsKrN7_V5I0v-MR-7" vertex="1">
          <mxGeometry y="26" width="210" height="26" as="geometry" />
        </mxCell>
        <mxCell id="KIXE_TsKrN7_V5I0v-MR-17" value="" style="endArrow=classic;html=1;rounded=0;exitX=1.004;exitY=1.029;exitDx=0;exitDy=0;exitPerimeter=0;" parent="1" source="KIXE_TsKrN7_V5I0v-MR-8" target="KIXE_TsKrN7_V5I0v-MR-19" edge="1">
          <mxGeometry relative="1" as="geometry">
            <mxPoint x="890" y="1060" as="sourcePoint" />
            <mxPoint x="976" y="1070" as="targetPoint" />
          </mxGeometry>
        </mxCell>
        <mxCell id="KIXE_TsKrN7_V5I0v-MR-18" value="is child of" style="edgeLabel;resizable=0;html=1;;align=center;verticalAlign=middle;" parent="KIXE_TsKrN7_V5I0v-MR-17" connectable="0" vertex="1">
          <mxGeometry relative="1" as="geometry" />
        </mxCell>
        <mxCell id="KIXE_TsKrN7_V5I0v-MR-19" value="Leonor Cortinas" style="swimlane;fontStyle=0;childLayout=stackLayout;horizontal=1;startSize=26;strokeColor=#E5DFEC;strokeWidth=3;fillColor=none;horizontalStack=0;resizeParent=1;resizeParentMax=0;resizeLast=0;collapsible=1;marginBottom=0;whiteSpace=wrap;html=1;" parent="1" vertex="1">
          <mxGeometry x="1600" y="753" width="130" height="52" as="geometry" />
        </mxCell>
        <mxCell id="KIXE_TsKrN7_V5I0v-MR-20" value="Person" style="text;strokeColor=#E5DFEC;strokeWidth=3;fillColor=none;align=center;verticalAlign=top;spacingLeft=4;spacingRight=4;overflow=hidden;rotatable=0;points=[[0,0.5],[1,0.5]];portConstraint=eastwest;whiteSpace=wrap;html=1;" parent="KIXE_TsKrN7_V5I0v-MR-19" vertex="1">
          <mxGeometry y="26" width="130" height="26" as="geometry" />
        </mxCell>
        <mxCell id="KIXE_TsKrN7_V5I0v-MR-21" value="" style="endArrow=classic;html=1;rounded=0;exitX=0.115;exitY=1.038;exitDx=0;exitDy=0;entryX=0.896;entryY=0.03;entryDx=0;entryDy=0;entryPerimeter=0;exitPerimeter=0;" parent="1" target="KIXE_TsKrN7_V5I0v-MR-23" edge="1" source="KIXE_TsKrN7_V5I0v-MR-20">
          <mxGeometry relative="1" as="geometry">
            <mxPoint x="1420" y="950" as="sourcePoint" />
            <mxPoint x="1170" y="1095" as="targetPoint" />
          </mxGeometry>
        </mxCell>
        <mxCell id="KIXE_TsKrN7_V5I0v-MR-22" value="is author of" style="edgeLabel;resizable=0;html=1;;align=center;verticalAlign=middle;" parent="KIXE_TsKrN7_V5I0v-MR-21" connectable="0" vertex="1">
          <mxGeometry relative="1" as="geometry" />
        </mxCell>
        <mxCell id="KIXE_TsKrN7_V5I0v-MR-23" value="Memorial de doña Leonor Cortinas donde suplica merced para el rescate de suo hijo Miguel de Cervantes. (Memorial of Doña Leonor Cortinas requesting merchandise towards the rescuing of her son Miguel de Cervantes)" style="swimlane;fontStyle=0;childLayout=stackLayout;horizontal=1;startSize=50;strokeColor=#DAEEF3;strokeWidth=3;fillColor=none;horizontalStack=0;resizeParent=1;resizeParentMax=0;resizeLast=0;collapsible=1;marginBottom=0;whiteSpace=wrap;html=1;" parent="1" vertex="1">
          <mxGeometry x="1140" y="950" width="430" height="76" as="geometry" />
        </mxCell>
        <mxCell id="KIXE_TsKrN7_V5I0v-MR-24" value="Record" style="text;strokeColor=#DAEEF3;strokeWidth=3;fillColor=none;align=center;verticalAlign=top;spacingLeft=4;spacingRight=4;overflow=hidden;rotatable=0;points=[[0,0.5],[1,0.5]];portConstraint=eastwest;whiteSpace=wrap;html=1;" parent="KIXE_TsKrN7_V5I0v-MR-23" vertex="1">
          <mxGeometry y="50" width="430" height="26" as="geometry" />
        </mxCell>
        <mxCell id="KIXE_TsKrN7_V5I0v-MR-25" value="" style="endArrow=classic;html=1;rounded=0;entryX=0.532;entryY=-0.013;entryDx=0;entryDy=0;entryPerimeter=0;exitX=0.419;exitY=1.115;exitDx=0;exitDy=0;exitPerimeter=0;" parent="1" source="KIXE_TsKrN7_V5I0v-MR-8" target="KIXE_TsKrN7_V5I0v-MR-23" edge="1">
          <mxGeometry relative="1" as="geometry">
            <mxPoint x="1130" y="990" as="sourcePoint" />
            <mxPoint x="1320" y="990" as="targetPoint" />
          </mxGeometry>
        </mxCell>
        <mxCell id="KIXE_TsKrN7_V5I0v-MR-26" value="is or was main subject of" style="edgeLabel;resizable=0;html=1;;align=center;verticalAlign=middle;" parent="KIXE_TsKrN7_V5I0v-MR-25" connectable="0" vertex="1">
          <mxGeometry relative="1" as="geometry" />
        </mxCell>
        <mxCell id="KIXE_TsKrN7_V5I0v-MR-27" value="" style="endArrow=classic;html=1;rounded=0;entryX=1.015;entryY=0.041;entryDx=0;entryDy=0;entryPerimeter=0;exitX=0.238;exitY=1.095;exitDx=0;exitDy=0;exitPerimeter=0;" parent="1" source="HBNztTJSBU7fsr8p8fqh-4" target="KIXE_TsKrN7_V5I0v-MR-30" edge="1">
          <mxGeometry relative="1" as="geometry">
            <mxPoint x="2009.9999999999995" y="1011.998" as="sourcePoint" />
            <mxPoint x="1511.1100000000001" y="980.02" as="targetPoint" />
          </mxGeometry>
        </mxCell>
        <mxCell id="KIXE_TsKrN7_V5I0v-MR-28" value="has creator" style="edgeLabel;resizable=0;html=1;;align=center;verticalAlign=middle;" parent="KIXE_TsKrN7_V5I0v-MR-27" connectable="0" vertex="1">
          <mxGeometry relative="1" as="geometry" />
        </mxCell>
        <mxCell id="KIXE_TsKrN7_V5I0v-MR-29" value="Council of War" style="swimlane;fontStyle=0;childLayout=stackLayout;horizontal=1;startSize=26;strokeColor=#C6D9F1;strokeWidth=3;fillColor=none;horizontalStack=0;resizeParent=1;resizeParentMax=0;resizeLast=0;collapsible=1;marginBottom=0;whiteSpace=wrap;html=1;" parent="1" vertex="1">
          <mxGeometry x="1530" y="1132" width="150" height="52" as="geometry" />
        </mxCell>
        <mxCell id="KIXE_TsKrN7_V5I0v-MR-30" value="Corporate Body" style="text;strokeColor=#C6D9F1;strokeWidth=3;fillColor=none;align=center;verticalAlign=top;spacingLeft=4;spacingRight=4;overflow=hidden;rotatable=0;points=[[0,0.5],[1,0.5]];portConstraint=eastwest;whiteSpace=wrap;html=1;" parent="KIXE_TsKrN7_V5I0v-MR-29" vertex="1">
          <mxGeometry y="26" width="150" height="26" as="geometry" />
        </mxCell>
        <mxCell id="KIXE_TsKrN7_V5I0v-MR-41" value="Compound record unit related to the license application and printing privilege of El Quijote, by Miguel de Cervantes." style="swimlane;fontStyle=0;childLayout=stackLayout;horizontal=1;startSize=50;strokeColor=#DAEEF3;fillColor=none;strokeWidth=3;horizontalStack=0;resizeParent=1;resizeParentMax=0;resizeLast=0;collapsible=1;marginBottom=0;whiteSpace=wrap;html=1;" parent="1" vertex="1">
          <mxGeometry x="835" y="560" width="280" height="76" as="geometry" />
        </mxCell>
        <mxCell id="KIXE_TsKrN7_V5I0v-MR-42" value="Record Set" style="text;strokeColor=#DAEEF3;strokeWidth=3;fillColor=none;align=center;verticalAlign=top;spacingLeft=4;spacingRight=4;overflow=hidden;rotatable=0;points=[[0,0.5],[1,0.5]];portConstraint=eastwest;whiteSpace=wrap;html=1;" parent="KIXE_TsKrN7_V5I0v-MR-41" vertex="1">
          <mxGeometry y="50" width="280" height="26" as="geometry" />
        </mxCell>
        <mxCell id="KIXE_TsKrN7_V5I0v-MR-43" value="" style="endArrow=classic;html=1;rounded=0;exitX=0.518;exitY=1.154;exitDx=0;exitDy=0;exitPerimeter=0;" parent="1" source="KIXE_TsKrN7_V5I0v-MR-42" edge="1">
          <mxGeometry relative="1" as="geometry">
            <mxPoint x="974" y="660" as="sourcePoint" />
            <mxPoint x="980" y="752" as="targetPoint" />
          </mxGeometry>
        </mxCell>
        <mxCell id="KIXE_TsKrN7_V5I0v-MR-44" value="includes or included" style="edgeLabel;resizable=0;html=1;;align=center;verticalAlign=middle;" parent="KIXE_TsKrN7_V5I0v-MR-43" connectable="0" vertex="1">
          <mxGeometry relative="1" as="geometry" />
        </mxCell>
        <mxCell id="DvZySXc-UM1LbdX2JnYo-22" value="" style="endArrow=classic;html=1;rounded=0;exitX=0.454;exitY=1.104;exitDx=0;exitDy=0;exitPerimeter=0;entryX=-0.004;entryY=0.041;entryDx=0;entryDy=0;entryPerimeter=0;" parent="1" source="KIXE_TsKrN7_V5I0v-MR-24" target="KIXE_TsKrN7_V5I0v-MR-30" edge="1">
          <mxGeometry relative="1" as="geometry">
            <mxPoint x="1340" y="1092" as="sourcePoint" />
            <mxPoint x="1500" y="1092" as="targetPoint" />
          </mxGeometry>
        </mxCell>
        <mxCell id="DvZySXc-UM1LbdX2JnYo-23" value="has addressee" style="edgeLabel;resizable=0;html=1;;align=center;verticalAlign=middle;" parent="DvZySXc-UM1LbdX2JnYo-22" connectable="0" vertex="1">
          <mxGeometry relative="1" as="geometry" />
        </mxCell>
        <mxCell id="DvZySXc-UM1LbdX2JnYo-26" value="Archivo General de Simancas" style="swimlane;fontStyle=0;childLayout=stackLayout;horizontal=1;startSize=26;strokeColor=#C6D9F1;strokeWidth=3;fillColor=none;horizontalStack=0;resizeParent=1;resizeParentMax=0;resizeLast=0;collapsible=1;marginBottom=0;whiteSpace=wrap;html=1;" parent="1" vertex="1">
          <mxGeometry x="1990" y="1132" width="200" height="104" as="geometry" />
        </mxCell>
        <mxCell id="DvZySXc-UM1LbdX2JnYo-27" value="Corporate Body" style="text;strokeColor=#C6D9F1;strokeWidth=3;fillColor=none;align=center;verticalAlign=top;spacingLeft=4;spacingRight=4;overflow=hidden;rotatable=0;points=[[0,0.5],[1,0.5]];portConstraint=eastwest;whiteSpace=wrap;html=1;" parent="DvZySXc-UM1LbdX2JnYo-26" vertex="1">
          <mxGeometry y="26" width="200" height="26" as="geometry" />
        </mxCell>
        <mxCell id="HBNztTJSBU7fsr8p8fqh-11" value="Place" style="text;strokeColor=#C6D9F1;strokeWidth=3;fillColor=none;align=center;verticalAlign=top;spacingLeft=4;spacingRight=4;overflow=hidden;rotatable=0;points=[[0,0.5],[1,0.5]];portConstraint=eastwest;whiteSpace=wrap;html=1;" vertex="1" parent="DvZySXc-UM1LbdX2JnYo-26">
          <mxGeometry y="52" width="200" height="26" as="geometry" />
        </mxCell>
        <mxCell id="HBNztTJSBU7fsr8p8fqh-12" value="Record Set" style="text;strokeColor=#C6D9F1;strokeWidth=3;fillColor=none;align=center;verticalAlign=top;spacingLeft=4;spacingRight=4;overflow=hidden;rotatable=0;points=[[0,0.5],[1,0.5]];portConstraint=eastwest;whiteSpace=wrap;html=1;" vertex="1" parent="DvZySXc-UM1LbdX2JnYo-26">
          <mxGeometry y="78" width="200" height="26" as="geometry" />
        </mxCell>
        <mxCell id="HBNztTJSBU7fsr8p8fqh-3" value="Response to Doña Leonor Cortinas&#39; memorial requesting merchandise towards the rescuing of her son Miguel de Cervantes" style="swimlane;fontStyle=0;childLayout=stackLayout;horizontal=1;startSize=50;strokeColor=#DAEEF3;strokeWidth=3;fillColor=none;horizontalStack=0;resizeParent=1;resizeParentMax=0;resizeLast=0;collapsible=1;marginBottom=0;whiteSpace=wrap;html=1;" vertex="1" parent="1">
          <mxGeometry x="1840" y="950" width="430" height="76" as="geometry" />
        </mxCell>
        <mxCell id="HBNztTJSBU7fsr8p8fqh-4" value="Record" style="text;strokeColor=#DAEEF3;strokeWidth=3;fillColor=none;align=center;verticalAlign=top;spacingLeft=4;spacingRight=4;overflow=hidden;rotatable=0;points=[[0,0.5],[1,0.5]];portConstraint=eastwest;whiteSpace=wrap;html=1;" vertex="1" parent="HBNztTJSBU7fsr8p8fqh-3">
          <mxGeometry y="50" width="430" height="26" as="geometry" />
        </mxCell>
        <mxCell id="HBNztTJSBU7fsr8p8fqh-5" value="" style="endArrow=classic;html=1;rounded=0;exitX=-0.003;exitY=0.382;exitDx=0;exitDy=0;exitPerimeter=0;" edge="1" parent="1" source="HBNztTJSBU7fsr8p8fqh-3">
          <mxGeometry relative="1" as="geometry">
            <mxPoint x="1615" y="685" as="sourcePoint" />
            <mxPoint x="1573" y="981" as="targetPoint" />
          </mxGeometry>
        </mxCell>
        <mxCell id="HBNztTJSBU7fsr8p8fqh-6" value="is reply to" style="edgeLabel;resizable=0;html=1;;align=center;verticalAlign=middle;" connectable="0" vertex="1" parent="HBNztTJSBU7fsr8p8fqh-5">
          <mxGeometry relative="1" as="geometry" />
        </mxCell>
        <mxCell id="DvZySXc-UM1LbdX2JnYo-24" value="" style="endArrow=classic;html=1;rounded=0;exitX=0.531;exitY=1.186;exitDx=0;exitDy=0;exitPerimeter=0;entryX=0.391;entryY=-0.045;entryDx=0;entryDy=0;entryPerimeter=0;" parent="1" source="HBNztTJSBU7fsr8p8fqh-4" target="DvZySXc-UM1LbdX2JnYo-26" edge="1">
          <mxGeometry relative="1" as="geometry">
            <mxPoint x="2011.4103542434746" y="1014" as="sourcePoint" />
            <mxPoint x="1910" y="822" as="targetPoint" />
          </mxGeometry>
        </mxCell>
        <mxCell id="DvZySXc-UM1LbdX2JnYo-25" value="has or had holder" style="edgeLabel;resizable=0;html=1;;align=center;verticalAlign=middle;" parent="DvZySXc-UM1LbdX2JnYo-24" connectable="0" vertex="1">
          <mxGeometry relative="1" as="geometry" />
        </mxCell>
        <mxCell id="HBNztTJSBU7fsr8p8fqh-7" value="Rodrigo de Cervantes" style="swimlane;fontStyle=0;childLayout=stackLayout;horizontal=1;startSize=26;strokeColor=#E5DFEC;strokeWidth=3;fillColor=none;horizontalStack=0;resizeParent=1;resizeParentMax=0;resizeLast=0;collapsible=1;marginBottom=0;whiteSpace=wrap;html=1;" vertex="1" parent="1">
          <mxGeometry x="1590" y="508" width="130" height="52" as="geometry" />
        </mxCell>
        <mxCell id="HBNztTJSBU7fsr8p8fqh-8" value="Person" style="text;strokeColor=#E5DFEC;strokeWidth=3;fillColor=none;align=center;verticalAlign=top;spacingLeft=4;spacingRight=4;overflow=hidden;rotatable=0;points=[[0,0.5],[1,0.5]];portConstraint=eastwest;whiteSpace=wrap;html=1;" vertex="1" parent="HBNztTJSBU7fsr8p8fqh-7">
          <mxGeometry y="26" width="130" height="26" as="geometry" />
        </mxCell>
        <mxCell id="HBNztTJSBU7fsr8p8fqh-9" value="" style="endArrow=classic;html=1;rounded=0;exitX=1;exitY=0;exitDx=0;exitDy=0;entryX=-0.032;entryY=0.041;entryDx=0;entryDy=0;entryPerimeter=0;exitPerimeter=0;" edge="1" parent="1" source="KIXE_TsKrN7_V5I0v-MR-7" target="HBNztTJSBU7fsr8p8fqh-8">
          <mxGeometry relative="1" as="geometry">
            <mxPoint x="1430" y="590" as="sourcePoint" />
            <mxPoint x="1546" y="651" as="targetPoint" />
          </mxGeometry>
        </mxCell>
        <mxCell id="HBNztTJSBU7fsr8p8fqh-10" value="is child of" style="edgeLabel;resizable=0;html=1;;align=center;verticalAlign=middle;" connectable="0" vertex="1" parent="HBNztTJSBU7fsr8p8fqh-9">
          <mxGeometry relative="1" as="geometry" />
        </mxCell>
        <mxCell id="HBNztTJSBU7fsr8p8fqh-13" value="Archivo Histórico Nacional" style="swimlane;fontStyle=0;childLayout=stackLayout;horizontal=1;startSize=26;strokeColor=#C6D9F1;strokeWidth=3;fillColor=none;horizontalStack=0;resizeParent=1;resizeParentMax=0;resizeLast=0;collapsible=1;marginBottom=0;whiteSpace=wrap;html=1;" vertex="1" parent="1">
          <mxGeometry x="1190" y="400" width="200" height="104" as="geometry" />
        </mxCell>
        <mxCell id="HBNztTJSBU7fsr8p8fqh-14" value="Corporate Body" style="text;strokeColor=#C6D9F1;strokeWidth=3;fillColor=none;align=center;verticalAlign=top;spacingLeft=4;spacingRight=4;overflow=hidden;rotatable=0;points=[[0,0.5],[1,0.5]];portConstraint=eastwest;whiteSpace=wrap;html=1;" vertex="1" parent="HBNztTJSBU7fsr8p8fqh-13">
          <mxGeometry y="26" width="200" height="26" as="geometry" />
        </mxCell>
        <mxCell id="HBNztTJSBU7fsr8p8fqh-15" value="Place" style="text;strokeColor=#C6D9F1;strokeWidth=3;fillColor=none;align=center;verticalAlign=top;spacingLeft=4;spacingRight=4;overflow=hidden;rotatable=0;points=[[0,0.5],[1,0.5]];portConstraint=eastwest;whiteSpace=wrap;html=1;" vertex="1" parent="HBNztTJSBU7fsr8p8fqh-13">
          <mxGeometry y="52" width="200" height="26" as="geometry" />
        </mxCell>
        <mxCell id="HBNztTJSBU7fsr8p8fqh-16" value="Record Set" style="text;strokeColor=#C6D9F1;strokeWidth=3;fillColor=none;align=center;verticalAlign=top;spacingLeft=4;spacingRight=4;overflow=hidden;rotatable=0;points=[[0,0.5],[1,0.5]];portConstraint=eastwest;whiteSpace=wrap;html=1;" vertex="1" parent="HBNztTJSBU7fsr8p8fqh-13">
          <mxGeometry y="78" width="200" height="26" as="geometry" />
        </mxCell>
        <mxCell id="HBNztTJSBU7fsr8p8fqh-17" value="" style="endArrow=classic;html=1;rounded=0;exitX=0.636;exitY=-0.013;exitDx=0;exitDy=0;exitPerimeter=0;entryX=-0.006;entryY=-0.005;entryDx=0;entryDy=0;entryPerimeter=0;" edge="1" parent="1" source="KIXE_TsKrN7_V5I0v-MR-41" target="HBNztTJSBU7fsr8p8fqh-15">
          <mxGeometry relative="1" as="geometry">
            <mxPoint x="1100" y="400" as="sourcePoint" />
            <mxPoint x="1100" y="496" as="targetPoint" />
          </mxGeometry>
        </mxCell>
        <mxCell id="HBNztTJSBU7fsr8p8fqh-18" value="has or had holder" style="edgeLabel;resizable=0;html=1;;align=center;verticalAlign=middle;" connectable="0" vertex="1" parent="HBNztTJSBU7fsr8p8fqh-17">
          <mxGeometry relative="1" as="geometry" />
        </mxCell>
        <mxCell id="HBNztTJSBU7fsr8p8fqh-19" value="" style="endArrow=classic;html=1;rounded=0;exitX=0.904;exitY=-0.013;exitDx=0;exitDy=0;exitPerimeter=0;" edge="1" parent="1" source="HBNztTJSBU7fsr8p8fqh-3" target="HBNztTJSBU7fsr8p8fqh-21">
          <mxGeometry relative="1" as="geometry">
            <mxPoint x="2120" y="760" as="sourcePoint" />
            <mxPoint x="1920" y="810" as="targetPoint" />
          </mxGeometry>
        </mxCell>
        <mxCell id="HBNztTJSBU7fsr8p8fqh-20" value="has creation date" style="edgeLabel;resizable=0;html=1;;align=center;verticalAlign=middle;" connectable="0" vertex="1" parent="HBNztTJSBU7fsr8p8fqh-19">
          <mxGeometry relative="1" as="geometry" />
        </mxCell>
        <mxCell id="HBNztTJSBU7fsr8p8fqh-21" value="Date of granting of 2000 ducats towards the freeing of Miguel de Cervantes" style="swimlane;fontStyle=0;childLayout=stackLayout;horizontal=1;startSize=45;strokeColor=#DDD9C3;strokeWidth=2;fillColor=none;horizontalStack=0;resizeParent=1;resizeParentMax=0;resizeLast=0;collapsible=1;marginBottom=0;whiteSpace=wrap;html=1;" vertex="1" parent="1">
          <mxGeometry x="2250" y="755" width="260" height="71" as="geometry" />
        </mxCell>
        <mxCell id="HBNztTJSBU7fsr8p8fqh-22" value="Date" style="text;strokeColor=#DDD9C3;strokeWidth=2;fillColor=#DDD9C3;align=center;verticalAlign=top;spacingLeft=4;spacingRight=4;overflow=hidden;rotatable=0;points=[[0,0.5],[1,0.5]];portConstraint=eastwest;whiteSpace=wrap;html=1;" vertex="1" parent="HBNztTJSBU7fsr8p8fqh-21">
          <mxGeometry y="45" width="260" height="26" as="geometry" />
        </mxCell>
        <mxCell id="HBNztTJSBU7fsr8p8fqh-23" value="Cervantes captured by pirates and ransomed" style="swimlane;fontStyle=0;childLayout=stackLayout;horizontal=1;startSize=32;strokeColor=#FFFAA0;strokeWidth=2;fillColor=none;horizontalStack=0;resizeParent=1;resizeParentMax=0;resizeLast=0;collapsible=1;marginBottom=0;whiteSpace=wrap;html=1;" vertex="1" parent="1">
          <mxGeometry x="1840" y="624" width="250" height="58" as="geometry" />
        </mxCell>
        <mxCell id="HBNztTJSBU7fsr8p8fqh-24" value="Event" style="text;strokeColor=#FFFAA0;strokeWidth=2;fillColor=#FFFAA0;align=center;verticalAlign=top;spacingLeft=4;spacingRight=4;overflow=hidden;rotatable=0;points=[[0,0.5],[1,0.5]];portConstraint=eastwest;whiteSpace=wrap;html=1;" vertex="1" parent="HBNztTJSBU7fsr8p8fqh-23">
          <mxGeometry y="32" width="250" height="26" as="geometry" />
        </mxCell>
        <mxCell id="HBNztTJSBU7fsr8p8fqh-25" value="" style="endArrow=classic;html=1;rounded=0;exitX=0;exitY=0.5;exitDx=0;exitDy=0;" edge="1" parent="1" source="HBNztTJSBU7fsr8p8fqh-23">
          <mxGeometry relative="1" as="geometry">
            <mxPoint x="1600" y="668" as="sourcePoint" />
            <mxPoint x="1490" y="656" as="targetPoint" />
          </mxGeometry>
        </mxCell>
        <mxCell id="HBNztTJSBU7fsr8p8fqh-26" value="affects or affected" style="edgeLabel;resizable=0;html=1;;align=center;verticalAlign=middle;" connectable="0" vertex="1" parent="HBNztTJSBU7fsr8p8fqh-25">
          <mxGeometry relative="1" as="geometry">
            <mxPoint x="75" y="-1" as="offset" />
          </mxGeometry>
        </mxCell>
        <mxCell id="HBNztTJSBU7fsr8p8fqh-27" value="" style="endArrow=classic;html=1;rounded=0;exitX=0.75;exitY=1;exitDx=0;exitDy=0;entryX=1;entryY=0;entryDx=0;entryDy=0;" edge="1" parent="1" source="HBNztTJSBU7fsr8p8fqh-23" target="KIXE_TsKrN7_V5I0v-MR-23">
          <mxGeometry relative="1" as="geometry">
            <mxPoint x="1970" y="910" as="sourcePoint" />
            <mxPoint x="1620" y="910" as="targetPoint" />
          </mxGeometry>
        </mxCell>
        <mxCell id="HBNztTJSBU7fsr8p8fqh-28" value="results or resulted in" style="edgeLabel;resizable=0;html=1;;align=center;verticalAlign=middle;" connectable="0" vertex="1" parent="HBNztTJSBU7fsr8p8fqh-27">
          <mxGeometry relative="1" as="geometry" />
        </mxCell>
        <mxCell id="HBNztTJSBU7fsr8p8fqh-29" value="Date of Cervantes&#39; capture by pirates" style="swimlane;fontStyle=0;childLayout=stackLayout;horizontal=1;startSize=32;strokeColor=#DDD9C3;strokeWidth=2;fillColor=none;horizontalStack=0;resizeParent=1;resizeParentMax=0;resizeLast=0;collapsible=1;marginBottom=0;whiteSpace=wrap;html=1;" vertex="1" parent="1">
          <mxGeometry x="2250" y="624" width="260" height="58" as="geometry" />
        </mxCell>
        <mxCell id="HBNztTJSBU7fsr8p8fqh-30" value="Date" style="text;strokeColor=#DDD9C3;strokeWidth=2;fillColor=#DDD9C3;align=center;verticalAlign=top;spacingLeft=4;spacingRight=4;overflow=hidden;rotatable=0;points=[[0,0.5],[1,0.5]];portConstraint=eastwest;whiteSpace=wrap;html=1;" vertex="1" parent="HBNztTJSBU7fsr8p8fqh-29">
          <mxGeometry y="32" width="260" height="26" as="geometry" />
        </mxCell>
        <mxCell id="HBNztTJSBU7fsr8p8fqh-31" value="" style="endArrow=classic;html=1;rounded=0;entryX=0;entryY=0.5;entryDx=0;entryDy=0;" edge="1" parent="1" target="HBNztTJSBU7fsr8p8fqh-35">
          <mxGeometry relative="1" as="geometry">
            <mxPoint x="2510" y="655.29" as="sourcePoint" />
            <mxPoint x="2720" y="655.874705882353" as="targetPoint" />
          </mxGeometry>
        </mxCell>
        <mxCell id="HBNztTJSBU7fsr8p8fqh-32" value="normalized date value" style="edgeLabel;resizable=0;html=1;;align=center;verticalAlign=middle;" connectable="0" vertex="1" parent="HBNztTJSBU7fsr8p8fqh-31">
          <mxGeometry relative="1" as="geometry" />
        </mxCell>
        <mxCell id="HBNztTJSBU7fsr8p8fqh-35" value="1575" style="html=1;whiteSpace=wrap;rounded=1;arcSize=50;" vertex="1" parent="1">
          <mxGeometry x="2680" y="631" width="110" height="50" as="geometry" />
        </mxCell>
        <mxCell id="HBNztTJSBU7fsr8p8fqh-36" value="" style="endArrow=classic;html=1;rounded=0;entryX=0;entryY=0.5;entryDx=0;entryDy=0;exitX=1;exitY=0.5;exitDx=0;exitDy=0;" edge="1" parent="1" source="HBNztTJSBU7fsr8p8fqh-21" target="HBNztTJSBU7fsr8p8fqh-38">
          <mxGeometry relative="1" as="geometry">
            <mxPoint x="2540" y="791" as="sourcePoint" />
            <mxPoint x="2670" y="790.71" as="targetPoint" />
          </mxGeometry>
        </mxCell>
        <mxCell id="HBNztTJSBU7fsr8p8fqh-37" value="normalized date value" style="edgeLabel;resizable=0;html=1;;align=center;verticalAlign=middle;" connectable="0" vertex="1" parent="HBNztTJSBU7fsr8p8fqh-36">
          <mxGeometry relative="1" as="geometry" />
        </mxCell>
        <mxCell id="HBNztTJSBU7fsr8p8fqh-38" value="1578" style="html=1;whiteSpace=wrap;rounded=1;arcSize=50;" vertex="1" parent="1">
          <mxGeometry x="2680" y="765.5" width="110" height="50" as="geometry" />
        </mxCell>
        <mxCell id="HBNztTJSBU7fsr8p8fqh-39" value="" style="endArrow=classic;html=1;rounded=0;exitX=1;exitY=0.5;exitDx=0;exitDy=0;entryX=0;entryY=0.5;entryDx=0;entryDy=0;" edge="1" parent="1" source="HBNztTJSBU7fsr8p8fqh-23" target="HBNztTJSBU7fsr8p8fqh-29">
          <mxGeometry relative="1" as="geometry">
            <mxPoint x="2160" y="680.0000000000002" as="sourcePoint" />
            <mxPoint x="2320" y="680" as="targetPoint" />
          </mxGeometry>
        </mxCell>
        <mxCell id="HBNztTJSBU7fsr8p8fqh-40" value="occurred at date" style="edgeLabel;resizable=0;html=1;;align=center;verticalAlign=middle;" connectable="0" vertex="1" parent="HBNztTJSBU7fsr8p8fqh-39">
          <mxGeometry relative="1" as="geometry" />
        </mxCell>
        <mxCell id="HBNztTJSBU7fsr8p8fqh-41" value="" style="endArrow=classic;html=1;rounded=0;exitX=0.5;exitY=1;exitDx=0;exitDy=0;entryX=0.5;entryY=0;entryDx=0;entryDy=0;" edge="1" parent="1" source="HBNztTJSBU7fsr8p8fqh-29" target="HBNztTJSBU7fsr8p8fqh-21">
          <mxGeometry relative="1" as="geometry">
            <mxPoint x="1930" y="790" as="sourcePoint" />
            <mxPoint x="2090" y="790" as="targetPoint" />
          </mxGeometry>
        </mxCell>
        <mxCell id="HBNztTJSBU7fsr8p8fqh-42" value="precedes in time" style="edgeLabel;resizable=0;html=1;;align=center;verticalAlign=middle;" connectable="0" vertex="1" parent="HBNztTJSBU7fsr8p8fqh-41">
          <mxGeometry relative="1" as="geometry" />
        </mxCell>
        <mxCell id="HBNztTJSBU7fsr8p8fqh-43" value="" style="endArrow=classic;html=1;rounded=0;entryX=0.477;entryY=1.058;entryDx=0;entryDy=0;entryPerimeter=0;jumpStyle=gap;jumpSize=12;" edge="1" parent="1" target="HBNztTJSBU7fsr8p8fqh-8">
          <mxGeometry relative="1" as="geometry">
            <mxPoint x="1652" y="750" as="sourcePoint" />
            <mxPoint x="1770" y="815.5" as="targetPoint" />
          </mxGeometry>
        </mxCell>
        <mxCell id="HBNztTJSBU7fsr8p8fqh-44" value="has or had spouse" style="edgeLabel;resizable=0;html=1;;align=center;verticalAlign=middle;" connectable="0" vertex="1" parent="HBNztTJSBU7fsr8p8fqh-43">
          <mxGeometry relative="1" as="geometry">
            <mxPoint x="1" y="43" as="offset" />
          </mxGeometry>
        </mxCell>
        <mxCell id="HBNztTJSBU7fsr8p8fqh-45" value="Certificación dada por el duque de Sesa confirmando los méritos y servicios de Miguel de Cervantes Saavedra [Certification by the Duke of Sesa of the merits and services of Miguel de Cervantes]" style="swimlane;fontStyle=0;childLayout=stackLayout;horizontal=1;startSize=60;strokeColor=#DAEEF3;strokeWidth=3;fillColor=none;horizontalStack=0;resizeParent=1;resizeParentMax=0;resizeLast=0;collapsible=1;marginBottom=0;whiteSpace=wrap;html=1;" vertex="1" parent="1">
          <mxGeometry x="2090" y="426" width="380" height="86" as="geometry" />
        </mxCell>
        <mxCell id="HBNztTJSBU7fsr8p8fqh-46" value="Record" style="text;strokeColor=#DAEEF3;strokeWidth=3;fillColor=none;align=center;verticalAlign=top;spacingLeft=4;spacingRight=4;overflow=hidden;rotatable=0;points=[[0,0.5],[1,0.5]];portConstraint=eastwest;whiteSpace=wrap;html=1;" vertex="1" parent="HBNztTJSBU7fsr8p8fqh-45">
          <mxGeometry y="60" width="380" height="26" as="geometry" />
        </mxCell>
        <mxCell id="HBNztTJSBU7fsr8p8fqh-47" value="Información a solicitud de Rodrigo de Cervantes, padre de Miguel de Cervantes, hecha en Madrid ante un alcalde de corte [Information solicited of Rodrigo de Cervantes, father of Miguel de Cervantes, made in Madrid before a court official]" style="swimlane;fontStyle=0;childLayout=stackLayout;horizontal=1;startSize=60;strokeColor=#DAEEF3;strokeWidth=3;fillColor=none;horizontalStack=0;resizeParent=1;resizeParentMax=0;resizeLast=0;collapsible=1;marginBottom=0;whiteSpace=wrap;html=1;" vertex="1" parent="1">
          <mxGeometry x="1500" y="320" width="450" height="86" as="geometry" />
        </mxCell>
        <mxCell id="HBNztTJSBU7fsr8p8fqh-48" value="Record" style="text;strokeColor=#DAEEF3;strokeWidth=3;fillColor=none;align=center;verticalAlign=top;spacingLeft=4;spacingRight=4;overflow=hidden;rotatable=0;points=[[0,0.5],[1,0.5]];portConstraint=eastwest;whiteSpace=wrap;html=1;" vertex="1" parent="HBNztTJSBU7fsr8p8fqh-47">
          <mxGeometry y="60" width="450" height="26" as="geometry" />
        </mxCell>
        <mxCell id="HBNztTJSBU7fsr8p8fqh-49" value="" style="endArrow=classic;html=1;rounded=0;exitX=0.75;exitY=0;exitDx=0;exitDy=0;entryX=0.416;entryY=1.019;entryDx=0;entryDy=0;entryPerimeter=0;" edge="1" parent="1">
          <mxGeometry relative="1" as="geometry">
            <mxPoint x="1650.3" y="508" as="sourcePoint" />
            <mxPoint x="1649.9999999999998" y="406.4939999999999" as="targetPoint" />
          </mxGeometry>
        </mxCell>
        <mxCell id="HBNztTJSBU7fsr8p8fqh-50" value="is or was subject of" style="edgeLabel;resizable=0;html=1;;align=center;verticalAlign=middle;" connectable="0" vertex="1" parent="HBNztTJSBU7fsr8p8fqh-49">
          <mxGeometry relative="1" as="geometry" />
        </mxCell>
        <mxCell id="HBNztTJSBU7fsr8p8fqh-51" value="" style="endArrow=classic;html=1;rounded=0;entryX=0.071;entryY=1.163;entryDx=0;entryDy=0;entryPerimeter=0;" edge="1" parent="1" source="KIXE_TsKrN7_V5I0v-MR-7" target="HBNztTJSBU7fsr8p8fqh-48">
          <mxGeometry relative="1" as="geometry">
            <mxPoint x="1451" y="585" as="sourcePoint" />
            <mxPoint x="1450" y="483" as="targetPoint" />
          </mxGeometry>
        </mxCell>
        <mxCell id="HBNztTJSBU7fsr8p8fqh-52" value="is or was subject of" style="edgeLabel;resizable=0;html=1;;align=center;verticalAlign=middle;" connectable="0" vertex="1" parent="HBNztTJSBU7fsr8p8fqh-51">
          <mxGeometry relative="1" as="geometry" />
        </mxCell>
        <mxCell id="HBNztTJSBU7fsr8p8fqh-53" value="" style="endArrow=classic;html=1;rounded=0;entryX=0;entryY=0.5;entryDx=0;entryDy=0;exitX=1;exitY=0.25;exitDx=0;exitDy=0;jumpStyle=gap;jumpSize=13;" edge="1" parent="1" source="KIXE_TsKrN7_V5I0v-MR-7" target="HBNztTJSBU7fsr8p8fqh-45">
          <mxGeometry relative="1" as="geometry">
            <mxPoint x="1640" y="790" as="sourcePoint" />
            <mxPoint x="1771" y="570" as="targetPoint" />
          </mxGeometry>
        </mxCell>
        <mxCell id="HBNztTJSBU7fsr8p8fqh-54" value="is or was main subject of" style="edgeLabel;resizable=0;html=1;;align=center;verticalAlign=middle;" connectable="0" vertex="1" parent="HBNztTJSBU7fsr8p8fqh-53">
          <mxGeometry relative="1" as="geometry" />
        </mxCell>
        <mxCell id="HBNztTJSBU7fsr8p8fqh-57" value="" style="endArrow=classic;html=1;rounded=0;entryX=0.898;entryY=-0.022;entryDx=0;entryDy=0;entryPerimeter=0;" edge="1" parent="1" source="HBNztTJSBU7fsr8p8fqh-46" target="HBNztTJSBU7fsr8p8fqh-23">
          <mxGeometry relative="1" as="geometry">
            <mxPoint x="2015.5" y="560" as="sourcePoint" />
            <mxPoint x="2164.5" y="776" as="targetPoint" />
          </mxGeometry>
        </mxCell>
        <mxCell id="HBNztTJSBU7fsr8p8fqh-58" value="is associated with event" style="edgeLabel;resizable=0;html=1;;align=center;verticalAlign=middle;" connectable="0" vertex="1" parent="HBNztTJSBU7fsr8p8fqh-57">
          <mxGeometry relative="1" as="geometry">
            <mxPoint x="9" y="-7" as="offset" />
          </mxGeometry>
        </mxCell>
        <mxCell id="HBNztTJSBU7fsr8p8fqh-59" value="Expediente sobre los méritos y servicios de Miguel de Cervantes Saavedra [File concerning the merits and services of Miguel de Cervantes Saavedra]" style="swimlane;fontStyle=0;childLayout=stackLayout;horizontal=1;startSize=50;strokeColor=#DAEEF3;fillColor=none;strokeWidth=3;horizontalStack=0;resizeParent=1;resizeParentMax=0;resizeLast=0;collapsible=1;marginBottom=0;whiteSpace=wrap;html=1;" vertex="1" parent="1">
          <mxGeometry x="2120" y="244" width="300" height="76" as="geometry" />
        </mxCell>
        <mxCell id="HBNztTJSBU7fsr8p8fqh-60" value="Record Set" style="text;strokeColor=#DAEEF3;strokeWidth=3;fillColor=none;align=center;verticalAlign=top;spacingLeft=4;spacingRight=4;overflow=hidden;rotatable=0;points=[[0,0.5],[1,0.5]];portConstraint=eastwest;whiteSpace=wrap;html=1;" vertex="1" parent="HBNztTJSBU7fsr8p8fqh-59">
          <mxGeometry y="50" width="300" height="26" as="geometry" />
        </mxCell>
        <mxCell id="HBNztTJSBU7fsr8p8fqh-61" value="" style="endArrow=classic;html=1;rounded=0;exitX=0;exitY=0.5;exitDx=0;exitDy=0;entryX=1;entryY=0.5;entryDx=0;entryDy=0;" edge="1" parent="1" source="HBNztTJSBU7fsr8p8fqh-59" target="HBNztTJSBU7fsr8p8fqh-47">
          <mxGeometry relative="1" as="geometry">
            <mxPoint x="2040" y="240" as="sourcePoint" />
            <mxPoint x="2040" y="352" as="targetPoint" />
          </mxGeometry>
        </mxCell>
        <mxCell id="HBNztTJSBU7fsr8p8fqh-62" value="includes or included" style="edgeLabel;resizable=0;html=1;;align=center;verticalAlign=middle;" connectable="0" vertex="1" parent="HBNztTJSBU7fsr8p8fqh-61">
          <mxGeometry relative="1" as="geometry" />
        </mxCell>
        <mxCell id="HBNztTJSBU7fsr8p8fqh-63" value="" style="endArrow=classic;html=1;rounded=0;entryX=0.418;entryY=0.047;entryDx=0;entryDy=0;entryPerimeter=0;exitX=0.435;exitY=0.974;exitDx=0;exitDy=0;exitPerimeter=0;" edge="1" parent="1" source="HBNztTJSBU7fsr8p8fqh-60" target="HBNztTJSBU7fsr8p8fqh-45">
          <mxGeometry relative="1" as="geometry">
            <mxPoint x="2252" y="320" as="sourcePoint" />
            <mxPoint x="2005" y="406" as="targetPoint" />
          </mxGeometry>
        </mxCell>
        <mxCell id="HBNztTJSBU7fsr8p8fqh-64" value="includes or included" style="edgeLabel;resizable=0;html=1;;align=center;verticalAlign=middle;" connectable="0" vertex="1" parent="HBNztTJSBU7fsr8p8fqh-63">
          <mxGeometry relative="1" as="geometry" />
        </mxCell>
        <mxCell id="HBNztTJSBU7fsr8p8fqh-66" value="File" style="swimlane;fontStyle=0;childLayout=stackLayout;horizontal=1;startSize=26;fillColor=none;horizontalStack=0;resizeParent=1;resizeParentMax=0;resizeLast=0;collapsible=1;marginBottom=0;whiteSpace=wrap;html=1;" vertex="1" parent="1">
          <mxGeometry x="2560" y="257" width="160" height="52" as="geometry">
            <mxRectangle x="981" y="570" width="50" height="40" as="alternateBounds" />
          </mxGeometry>
        </mxCell>
        <mxCell id="HBNztTJSBU7fsr8p8fqh-67" value="Record Set Type&lt;div&gt;&lt;br&gt;&lt;/div&gt;" style="text;fillColor=none;align=center;verticalAlign=top;spacingLeft=4;spacingRight=4;overflow=hidden;rotatable=0;points=[[0,0.5],[1,0.5]];portConstraint=eastwest;whiteSpace=wrap;html=1;" vertex="1" parent="HBNztTJSBU7fsr8p8fqh-66">
          <mxGeometry y="26" width="160" height="26" as="geometry" />
        </mxCell>
        <mxCell id="HBNztTJSBU7fsr8p8fqh-68" value="" style="endArrow=classic;html=1;rounded=0;entryX=0;entryY=0.5;entryDx=0;entryDy=0;exitX=1;exitY=0.5;exitDx=0;exitDy=0;" edge="1" parent="1" source="HBNztTJSBU7fsr8p8fqh-59" target="HBNztTJSBU7fsr8p8fqh-66">
          <mxGeometry relative="1" as="geometry">
            <mxPoint x="2430" y="280" as="sourcePoint" />
            <mxPoint x="2430" y="395" as="targetPoint" />
          </mxGeometry>
        </mxCell>
        <mxCell id="HBNztTJSBU7fsr8p8fqh-69" value="record set type" style="edgeLabel;resizable=0;html=1;;align=center;verticalAlign=middle;" connectable="0" vertex="1" parent="HBNztTJSBU7fsr8p8fqh-68">
          <mxGeometry relative="1" as="geometry" />
        </mxCell>
        <mxCell id="HBNztTJSBU7fsr8p8fqh-70" value="Archivo General de Indias" style="swimlane;fontStyle=0;childLayout=stackLayout;horizontal=1;startSize=26;strokeColor=#C6D9F1;strokeWidth=3;fillColor=none;horizontalStack=0;resizeParent=1;resizeParentMax=0;resizeLast=0;collapsible=1;marginBottom=0;whiteSpace=wrap;html=1;" vertex="1" parent="1">
          <mxGeometry x="2560" y="420" width="200" height="104" as="geometry" />
        </mxCell>
        <mxCell id="HBNztTJSBU7fsr8p8fqh-71" value="Corporate Body" style="text;strokeColor=#C6D9F1;strokeWidth=3;fillColor=none;align=center;verticalAlign=top;spacingLeft=4;spacingRight=4;overflow=hidden;rotatable=0;points=[[0,0.5],[1,0.5]];portConstraint=eastwest;whiteSpace=wrap;html=1;" vertex="1" parent="HBNztTJSBU7fsr8p8fqh-70">
          <mxGeometry y="26" width="200" height="26" as="geometry" />
        </mxCell>
        <mxCell id="HBNztTJSBU7fsr8p8fqh-72" value="Place" style="text;strokeColor=#C6D9F1;strokeWidth=3;fillColor=none;align=center;verticalAlign=top;spacingLeft=4;spacingRight=4;overflow=hidden;rotatable=0;points=[[0,0.5],[1,0.5]];portConstraint=eastwest;whiteSpace=wrap;html=1;" vertex="1" parent="HBNztTJSBU7fsr8p8fqh-70">
          <mxGeometry y="52" width="200" height="26" as="geometry" />
        </mxCell>
        <mxCell id="HBNztTJSBU7fsr8p8fqh-73" value="Record Set" style="text;strokeColor=#C6D9F1;strokeWidth=3;fillColor=none;align=center;verticalAlign=top;spacingLeft=4;spacingRight=4;overflow=hidden;rotatable=0;points=[[0,0.5],[1,0.5]];portConstraint=eastwest;whiteSpace=wrap;html=1;" vertex="1" parent="HBNztTJSBU7fsr8p8fqh-70">
          <mxGeometry y="78" width="200" height="26" as="geometry" />
        </mxCell>
        <mxCell id="HBNztTJSBU7fsr8p8fqh-74" value="" style="endArrow=classic;html=1;rounded=0;exitX=1;exitY=0.5;exitDx=0;exitDy=0;entryX=0;entryY=0;entryDx=0;entryDy=0;" edge="1" parent="1" source="HBNztTJSBU7fsr8p8fqh-60" target="HBNztTJSBU7fsr8p8fqh-70">
          <mxGeometry relative="1" as="geometry">
            <mxPoint x="2490" y="340" as="sourcePoint" />
            <mxPoint x="2490" y="436" as="targetPoint" />
          </mxGeometry>
        </mxCell>
        <mxCell id="HBNztTJSBU7fsr8p8fqh-75" value="has or had holder" style="edgeLabel;resizable=0;html=1;;align=center;verticalAlign=middle;" connectable="0" vertex="1" parent="HBNztTJSBU7fsr8p8fqh-74">
          <mxGeometry relative="1" as="geometry" />
        </mxCell>
      </root>
    </mxGraphModel>
  </diagram>
</mxfile>
